<?xml version="1.0" encoding="UTF-8" standalone="no"?>
<!DOCTYPE svg PUBLIC "-//W3C//DTD SVG 1.1//EN"
 "http://www.w3.org/Graphics/SVG/1.1/DTD/svg11.dtd">
<!-- Generated by graphviz version 2.46.0 (20210119.1425)
 -->
<!-- Title: dependencies Pages: 1 -->
<svg width="814pt" height="284pt"
 viewBox="0.00 0.00 814.00 284.00" xmlns="http://www.w3.org/2000/svg" xmlns:xlink="http://www.w3.org/1999/xlink">
<g id="graph0" class="graph" transform="scale(1 1) rotate(0) translate(4 280)">
<title>dependencies</title>
<polygon fill="white" stroke="transparent" points="-4,4 -4,-280 810,-280 810,4 -4,4"/>
<text text-anchor="start" x="382.01" y="-42.4" font-family="sans-serif" font-weight="bold" font-size="14.00">Legend</text>
<polygon fill="#ffffb3" stroke="transparent" points="169,-10 169,-30 189,-30 189,-10 169,-10"/>
<text text-anchor="start" x="192.63" y="-15.4" font-family="sans-serif" font-size="14.00"> &#160;Declarations</text>
<polygon fill="#8dd3c7" stroke="transparent" points="282,-10 282,-30 302,-30 302,-10 282,-10"/>
<text text-anchor="start" x="305.73" y="-15.4" font-family="sans-serif" font-size="14.00"> &#160;Module</text>
<polygon fill="#80b1d3" stroke="transparent" points="368,-10 368,-30 388,-30 388,-10 368,-10"/>
<text text-anchor="start" x="391.78" y="-15.4" font-family="sans-serif" font-size="14.00"> &#160;Bootstrap</text>
<polygon fill="#fdb462" stroke="transparent" points="465,-10 465,-30 485,-30 485,-10 465,-10"/>
<text text-anchor="start" x="488.67" y="-15.4" font-family="sans-serif" font-size="14.00"> &#160;Providers</text>
<polygon fill="#fb8072" stroke="transparent" points="561,-10 561,-30 581,-30 581,-10 561,-10"/>
<text text-anchor="start" x="584.73" y="-15.4" font-family="sans-serif" font-size="14.00"> &#160;Exports</text>
<g id="clust1" class="cluster">
<title>cluster_ActorsModule</title>
<polygon fill="none" stroke="black" stroke-dasharray="1,5" points="8,-70 8,-268 798,-268 798,-70 8,-70"/>
</g>
<g id="clust9" class="cluster">
<title>cluster_ActorsModule_providers</title>
<polygon fill="none" stroke="black" points="658,-78 658,-130 790,-130 790,-78 658,-78"/>
</g>
<g id="clust7" class="cluster">
<title>cluster_ActorsModule_exports</title>
<polygon fill="none" stroke="black" points="328,-208 328,-260 466,-260 466,-208 328,-208"/>
</g>
<g id="clust6" class="cluster">
<title>cluster_ActorsModule_imports</title>
<polygon fill="none" stroke="black" points="492,-78 492,-130 650,-130 650,-78 492,-78"/>
</g>
<g id="clust2" class="cluster">
<title>cluster_ActorsModule_declarations</title>
<polygon fill="none" stroke="black" points="16,-78 16,-130 484,-130 484,-78 16,-78"/>
</g>
<!-- ActorsDetailsComponent -->
<g id="node1" class="node">
<title>ActorsDetailsComponent</title>
<polygon fill="#ffffb3" stroke="black" points="476.3,-122 317.7,-122 317.7,-86 476.3,-86 476.3,-122"/>
<text text-anchor="middle" x="397" y="-99.8" font-family="Times,serif" font-size="14.00">ActorsDetailsComponent</text>
</g>
<!-- ActorsModule -->
<g id="node4" class="node">
<title>ActorsModule</title>
<polygon fill="#8dd3c7" stroke="black" points="445.37,-187 442.37,-191 421.37,-191 418.37,-187 348.63,-187 348.63,-151 445.37,-151 445.37,-187"/>
<text text-anchor="middle" x="397" y="-164.8" font-family="Times,serif" font-size="14.00">ActorsModule</text>
</g>
<!-- ActorsDetailsComponent&#45;&gt;ActorsModule -->
<g id="edge1" class="edge">
<title>ActorsDetailsComponent&#45;&gt;ActorsModule</title>
<path fill="none" stroke="black" d="M397,-122.11C397,-122.11 397,-140.99 397,-140.99"/>
<polygon fill="black" stroke="black" points="393.5,-140.99 397,-150.99 400.5,-140.99 393.5,-140.99"/>
</g>
<!-- ActorsListComponent -->
<g id="node2" class="node">
<title>ActorsListComponent</title>
<polygon fill="#ffffb3" stroke="black" points="300.43,-122 159.57,-122 159.57,-86 300.43,-86 300.43,-122"/>
<text text-anchor="middle" x="230" y="-99.8" font-family="Times,serif" font-size="14.00">ActorsListComponent</text>
</g>
<!-- ActorsListComponent&#45;&gt;ActorsModule -->
<g id="edge2" class="edge">
<title>ActorsListComponent&#45;&gt;ActorsModule</title>
<path fill="none" stroke="black" d="M230,-122.02C230,-139.37 230,-163 230,-163 230,-163 338.25,-163 338.25,-163"/>
<polygon fill="black" stroke="black" points="338.25,-166.5 348.25,-163 338.25,-159.5 338.25,-166.5"/>
</g>
<!-- ModalComponent -->
<g id="node3" class="node">
<title>ModalComponent</title>
<polygon fill="#ffffb3" stroke="black" points="141.88,-122 24.12,-122 24.12,-86 141.88,-86 141.88,-122"/>
<text text-anchor="middle" x="83" y="-99.8" font-family="Times,serif" font-size="14.00">ModalComponent</text>
</g>
<!-- ModalComponent&#45;&gt;ActorsModule -->
<g id="edge3" class="edge">
<title>ModalComponent&#45;&gt;ActorsModule</title>
<path fill="none" stroke="black" d="M83,-122.28C83,-143.32 83,-175 83,-175 83,-175 338.63,-175 338.63,-175"/>
<polygon fill="black" stroke="black" points="338.63,-178.5 348.63,-175 338.63,-171.5 338.63,-178.5"/>
</g>
<!-- ModalComponent  -->
<g id="node6" class="node">
<title>ModalComponent </title>
<polygon fill="#fb8072" stroke="black" points="457.88,-252 336.12,-252 336.12,-216 457.88,-216 457.88,-252"/>
<text text-anchor="middle" x="397" y="-229.8" font-family="Times,serif" font-size="14.00">ModalComponent </text>
</g>
<!-- ActorsModule&#45;&gt;ModalComponent  -->
<g id="edge5" class="edge">
<title>ActorsModule&#45;&gt;ModalComponent </title>
<path fill="none" stroke="black" stroke-dasharray="5,2" d="M413.14,-187.11C413.14,-187.11 413.14,-205.99 413.14,-205.99"/>
<polygon fill="black" stroke="black" points="409.64,-205.99 413.14,-215.99 416.64,-205.99 409.64,-205.99"/>
</g>
<!-- ActorsModule&#45;&gt;ModalComponent  -->
<g id="edge6" class="edge">
<title>ActorsModule&#45;&gt;ModalComponent </title>
<path fill="none" stroke="black" stroke-dasharray="1,5" d="M380.86,-187.11C380.86,-187.11 380.86,-205.99 380.86,-205.99"/>
<polygon fill="black" stroke="black" points="377.36,-205.99 380.86,-215.99 384.36,-205.99 377.36,-205.99"/>
</g>
<!-- ActorsRoutingModule -->
<g id="node5" class="node">
<title>ActorsRoutingModule</title>
<polygon fill="#8dd3c7" stroke="black" points="641.98,-122 638.98,-126 617.98,-126 614.98,-122 500.02,-122 500.02,-86 641.98,-86 641.98,-122"/>
<text text-anchor="middle" x="571" y="-99.8" font-family="Times,serif" font-size="14.00">ActorsRoutingModule</text>
</g>
<!-- ActorsRoutingModule&#45;&gt;ActorsModule -->
<g id="edge4" class="edge">
<title>ActorsRoutingModule&#45;&gt;ActorsModule</title>
<path fill="none" stroke="black" d="M571,-122.02C571,-139.37 571,-163 571,-163 571,-163 455.47,-163 455.47,-163"/>
<polygon fill="black" stroke="black" points="455.47,-159.5 445.47,-163 455.47,-166.5 455.47,-159.5"/>
</g>
<!-- DataService -->
<g id="node7" class="node">
<title>DataService</title>
<ellipse fill="#fdb462" stroke="black" cx="724" cy="-104" rx="58.44" ry="18"/>
<text text-anchor="middle" x="724" y="-99.8" font-family="Times,serif" font-size="14.00">DataService</text>
</g>
<!-- DataService&#45;&gt;ActorsModule -->
<g id="edge7" class="edge">
<title>DataService&#45;&gt;ActorsModule</title>
<path fill="none" stroke="black" d="M724,-122.28C724,-143.32 724,-175 724,-175 724,-175 455.6,-175 455.6,-175"/>
<polygon fill="black" stroke="black" points="455.6,-171.5 445.6,-175 455.6,-178.5 455.6,-171.5"/>
</g>
</g>
</svg>
