<?xml version="1.0" encoding="UTF-8" standalone="no"?>
<!DOCTYPE svg PUBLIC "-//W3C//DTD SVG 1.1//EN"
 "http://www.w3.org/Graphics/SVG/1.1/DTD/svg11.dtd">
<!-- Generated by graphviz version 2.44.1 (20200629.0846)
 -->
<!-- Title: dependencies Pages: 1 -->
<svg width="809pt" height="284pt"
 viewBox="0.00 0.00 809.00 284.00" xmlns="http://www.w3.org/2000/svg" xmlns:xlink="http://www.w3.org/1999/xlink">
<g id="graph0" class="graph" transform="scale(1 1) rotate(0) translate(4 280)">
<title>dependencies</title>
<polygon fill="white" stroke="transparent" points="-4,4 -4,-280 805,-280 805,4 -4,4"/>
<text text-anchor="start" x="379.51" y="-42.4" font-family="sans-serif" font-weight="bold" font-size="14.00">Legend</text>
<polygon fill="#ffffb3" stroke="transparent" points="166.5,-10 166.5,-30 186.5,-30 186.5,-10 166.5,-10"/>
<text text-anchor="start" x="190.13" y="-15.4" font-family="sans-serif" font-size="14.00"> &#160;Declarations</text>
<polygon fill="#8dd3c7" stroke="transparent" points="279.5,-10 279.5,-30 299.5,-30 299.5,-10 279.5,-10"/>
<text text-anchor="start" x="303.23" y="-15.4" font-family="sans-serif" font-size="14.00"> &#160;Module</text>
<polygon fill="#80b1d3" stroke="transparent" points="365.5,-10 365.5,-30 385.5,-30 385.5,-10 365.5,-10"/>
<text text-anchor="start" x="389.28" y="-15.4" font-family="sans-serif" font-size="14.00"> &#160;Bootstrap</text>
<polygon fill="#fdb462" stroke="transparent" points="462.5,-10 462.5,-30 482.5,-30 482.5,-10 462.5,-10"/>
<text text-anchor="start" x="486.17" y="-15.4" font-family="sans-serif" font-size="14.00"> &#160;Providers</text>
<polygon fill="#fb8072" stroke="transparent" points="558.5,-10 558.5,-30 578.5,-30 578.5,-10 558.5,-10"/>
<text text-anchor="start" x="582.23" y="-15.4" font-family="sans-serif" font-size="14.00"> &#160;Exports</text>
<g id="clust1" class="cluster">
<title>cluster_ActorsModule</title>
<polygon fill="none" stroke="black" stroke-dasharray="1,5" points="8,-70 8,-268 793,-268 793,-70 8,-70"/>
</g>
<g id="clust8" class="cluster">
<title>cluster_ActorsModule_bootstrap</title>
<polygon fill="none" stroke="black" points="320,-208 320,-260 458,-260 458,-208 320,-208"/>
</g>
<g id="clust2" class="cluster">
<title>cluster_ActorsModule_declarations</title>
<polygon fill="none" stroke="black" points="322,-78 322,-130 785,-130 785,-78 322,-78"/>
</g>
<g id="clust9" class="cluster">
<title>cluster_ActorsModule_providers</title>
<polygon fill="none" stroke="black" points="182,-78 182,-130 314,-130 314,-78 182,-78"/>
</g>
<g id="clust6" class="cluster">
<title>cluster_ActorsModule_imports</title>
<polygon fill="none" stroke="black" points="16,-78 16,-130 174,-130 174,-78 16,-78"/>
</g>
<!-- ActorDetailsComponent -->
<g id="node1" class="node">
<title>ActorDetailsComponent</title>
<polygon fill="#ffffb3" stroke="black" points="777.36,-122 624.64,-122 624.64,-86 777.36,-86 777.36,-122"/>
<text text-anchor="middle" x="701" y="-99.8" font-family="Times,serif" font-size="14.00">ActorDetailsComponent</text>
</g>
<!-- ActorsModule -->
<g id="node4" class="node">
<title>ActorsModule</title>
<polygon fill="#8dd3c7" stroke="black" points="437.37,-187 434.37,-191 413.37,-191 410.37,-187 340.63,-187 340.63,-151 437.37,-151 437.37,-187"/>
<text text-anchor="middle" x="389" y="-164.8" font-family="Times,serif" font-size="14.00">ActorsModule</text>
</g>
<!-- ActorDetailsComponent&#45;&gt;ActorsModule -->
<g id="edge1" class="edge">
<title>ActorDetailsComponent&#45;&gt;ActorsModule</title>
<path fill="none" stroke="black" d="M701,-122.28C701,-143.32 701,-175 701,-175 701,-175 447.41,-175 447.41,-175"/>
<polygon fill="black" stroke="black" points="447.41,-171.5 437.41,-175 447.41,-178.5 447.41,-171.5"/>
</g>
<!-- ActorsListComponent -->
<g id="node2" class="node">
<title>ActorsListComponent</title>
<polygon fill="#ffffb3" stroke="black" points="606.43,-122 465.57,-122 465.57,-86 606.43,-86 606.43,-122"/>
<text text-anchor="middle" x="536" y="-99.8" font-family="Times,serif" font-size="14.00">ActorsListComponent</text>
</g>
<!-- ActorsListComponent&#45;&gt;ActorsModule -->
<g id="edge2" class="edge">
<title>ActorsListComponent&#45;&gt;ActorsModule</title>
<path fill="none" stroke="black" d="M536,-122.02C536,-139.37 536,-163 536,-163 536,-163 447.54,-163 447.54,-163"/>
<polygon fill="black" stroke="black" points="447.54,-159.5 437.54,-163 447.54,-166.5 447.54,-159.5"/>
</g>
<!-- ModalComponent -->
<g id="node3" class="node">
<title>ModalComponent</title>
<polygon fill="#ffffb3" stroke="black" points="447.88,-122 330.12,-122 330.12,-86 447.88,-86 447.88,-122"/>
<text text-anchor="middle" x="389" y="-99.8" font-family="Times,serif" font-size="14.00">ModalComponent</text>
</g>
<!-- ModalComponent&#45;&gt;ActorsModule -->
<g id="edge3" class="edge">
<title>ModalComponent&#45;&gt;ActorsModule</title>
<path fill="none" stroke="black" d="M389,-122.11C389,-122.11 389,-140.99 389,-140.99"/>
<polygon fill="black" stroke="black" points="385.5,-140.99 389,-150.99 392.5,-140.99 385.5,-140.99"/>
</g>
<!-- ModalComponent  -->
<g id="node6" class="node">
<title>ModalComponent </title>
<polygon fill="#fb8072" stroke="black" points="449.88,-252 328.12,-252 328.12,-216 449.88,-216 449.88,-252"/>
<text text-anchor="middle" x="389" y="-229.8" font-family="Times,serif" font-size="14.00">ModalComponent </text>
</g>
<!-- ActorsModule&#45;&gt;ModalComponent  -->
<g id="edge5" class="edge">
<title>ActorsModule&#45;&gt;ModalComponent </title>
<path fill="none" stroke="black" stroke-dasharray="5,2" d="M405.14,-187.11C405.14,-187.11 405.14,-205.99 405.14,-205.99"/>
<polygon fill="black" stroke="black" points="401.64,-205.99 405.14,-215.99 408.64,-205.99 401.64,-205.99"/>
</g>
<!-- ActorsModule&#45;&gt;ModalComponent  -->
<g id="edge6" class="edge">
<title>ActorsModule&#45;&gt;ModalComponent </title>
<path fill="none" stroke="black" stroke-dasharray="1,5" d="M372.86,-187.11C372.86,-187.11 372.86,-205.99 372.86,-205.99"/>
<polygon fill="black" stroke="black" points="369.36,-205.99 372.86,-215.99 376.36,-205.99 369.36,-205.99"/>
</g>
<!-- ActorsRoutingModule -->
<g id="node5" class="node">
<title>ActorsRoutingModule</title>
<polygon fill="#8dd3c7" stroke="black" points="165.98,-122 162.98,-126 141.98,-126 138.98,-122 24.02,-122 24.02,-86 165.98,-86 165.98,-122"/>
<text text-anchor="middle" x="95" y="-99.8" font-family="Times,serif" font-size="14.00">ActorsRoutingModule</text>
</g>
<!-- ActorsRoutingModule&#45;&gt;ActorsModule -->
<g id="edge4" class="edge">
<title>ActorsRoutingModule&#45;&gt;ActorsModule</title>
<path fill="none" stroke="black" d="M95,-122.28C95,-143.32 95,-175 95,-175 95,-175 330.45,-175 330.45,-175"/>
<polygon fill="black" stroke="black" points="330.45,-178.5 340.45,-175 330.45,-171.5 330.45,-178.5"/>
</g>
<!-- DataService -->
<g id="node7" class="node">
<title>DataService</title>
<ellipse fill="#fdb462" stroke="black" cx="248" cy="-104" rx="58.44" ry="18"/>
<text text-anchor="middle" x="248" y="-99.8" font-family="Times,serif" font-size="14.00">DataService</text>
</g>
<!-- DataService&#45;&gt;ActorsModule -->
<g id="edge7" class="edge">
<title>DataService&#45;&gt;ActorsModule</title>
<path fill="none" stroke="black" d="M248,-122.02C248,-139.37 248,-163 248,-163 248,-163 330.48,-163 330.48,-163"/>
<polygon fill="black" stroke="black" points="330.48,-166.5 340.48,-163 330.48,-159.5 330.48,-166.5"/>
</g>
</g>
</svg>
