<?xml version="1.0" encoding="UTF-8" standalone="no"?>
<!DOCTYPE svg PUBLIC "-//W3C//DTD SVG 1.1//EN"
 "http://www.w3.org/Graphics/SVG/1.1/DTD/svg11.dtd">
<!-- Generated by graphviz version 2.44.1 (20200629.0846)
 -->
<!-- Title: dependencies Pages: 1 -->
<svg width="652pt" height="211pt"
 viewBox="0.00 0.00 652.00 211.00" xmlns="http://www.w3.org/2000/svg" xmlns:xlink="http://www.w3.org/1999/xlink">
<g id="graph0" class="graph" transform="scale(1 1) rotate(0) translate(4 207)">
<title>dependencies</title>
<polygon fill="white" stroke="transparent" points="-4,4 -4,-207 648,-207 648,4 -4,4"/>
<text text-anchor="start" x="301.01" y="-42.4" font-family="sans-serif" font-weight="bold" font-size="14.00">Legend</text>
<polygon fill="#ffffb3" stroke="transparent" points="88,-10 88,-30 108,-30 108,-10 88,-10"/>
<text text-anchor="start" x="111.63" y="-15.4" font-family="sans-serif" font-size="14.00"> &#160;Declarations</text>
<polygon fill="#8dd3c7" stroke="transparent" points="201,-10 201,-30 221,-30 221,-10 201,-10"/>
<text text-anchor="start" x="224.73" y="-15.4" font-family="sans-serif" font-size="14.00"> &#160;Module</text>
<polygon fill="#80b1d3" stroke="transparent" points="287,-10 287,-30 307,-30 307,-10 287,-10"/>
<text text-anchor="start" x="310.78" y="-15.4" font-family="sans-serif" font-size="14.00"> &#160;Bootstrap</text>
<polygon fill="#fdb462" stroke="transparent" points="384,-10 384,-30 404,-30 404,-10 384,-10"/>
<text text-anchor="start" x="407.67" y="-15.4" font-family="sans-serif" font-size="14.00"> &#160;Providers</text>
<polygon fill="#fb8072" stroke="transparent" points="480,-10 480,-30 500,-30 500,-10 480,-10"/>
<text text-anchor="start" x="503.73" y="-15.4" font-family="sans-serif" font-size="14.00"> &#160;Exports</text>
<g id="clust1" class="cluster">
<title>cluster_FilmsModule</title>
<polygon fill="none" stroke="black" stroke-dasharray="1,5" points="8,-70 8,-195 636,-195 636,-70 8,-70"/>
</g>
<g id="clust2" class="cluster">
<title>cluster_FilmsModule_declarations</title>
<polygon fill="none" stroke="black" points="316,-78 316,-130 628,-130 628,-78 316,-78"/>
</g>
<g id="clust8" class="cluster">
<title>cluster_FilmsModule_providers</title>
<polygon fill="none" stroke="black" points="176,-78 176,-130 308,-130 308,-78 176,-78"/>
</g>
<g id="clust5" class="cluster">
<title>cluster_FilmsModule_imports</title>
<polygon fill="none" stroke="black" points="16,-78 16,-130 168,-130 168,-78 16,-78"/>
</g>
<!-- FilmDetailsComponent -->
<g id="node1" class="node">
<title>FilmDetailsComponent</title>
<polygon fill="#ffffb3" stroke="black" points="619.94,-122 472.06,-122 472.06,-86 619.94,-86 619.94,-122"/>
<text text-anchor="middle" x="546" y="-99.8" font-family="Times,serif" font-size="14.00">FilmDetailsComponent</text>
</g>
<!-- FilmsModule -->
<g id="node3" class="node">
<title>FilmsModule</title>
<polygon fill="#8dd3c7" stroke="black" points="360.95,-187 357.95,-191 336.95,-191 333.95,-187 269.05,-187 269.05,-151 360.95,-151 360.95,-187"/>
<text text-anchor="middle" x="315" y="-164.8" font-family="Times,serif" font-size="14.00">FilmsModule</text>
</g>
<!-- FilmDetailsComponent&#45;&gt;FilmsModule -->
<g id="edge1" class="edge">
<title>FilmDetailsComponent&#45;&gt;FilmsModule</title>
<path fill="none" stroke="black" d="M546,-122.11C546,-141.34 546,-169 546,-169 546,-169 370.91,-169 370.91,-169"/>
<polygon fill="black" stroke="black" points="370.91,-165.5 360.91,-169 370.91,-172.5 370.91,-165.5"/>
</g>
<!-- FilmListComponent -->
<g id="node2" class="node">
<title>FilmListComponent</title>
<polygon fill="#ffffb3" stroke="black" points="453.57,-122 324.43,-122 324.43,-86 453.57,-86 453.57,-122"/>
<text text-anchor="middle" x="389" y="-99.8" font-family="Times,serif" font-size="14.00">FilmListComponent</text>
</g>
<!-- FilmListComponent&#45;&gt;FilmsModule -->
<g id="edge2" class="edge">
<title>FilmListComponent&#45;&gt;FilmsModule</title>
<path fill="none" stroke="black" d="M342.47,-122.11C342.47,-122.11 342.47,-140.99 342.47,-140.99"/>
<polygon fill="black" stroke="black" points="338.97,-140.99 342.47,-150.99 345.97,-140.99 338.97,-140.99"/>
</g>
<!-- FilmsRoutingModule -->
<g id="node4" class="node">
<title>FilmsRoutingModule</title>
<polygon fill="#8dd3c7" stroke="black" points="160.07,-122 157.07,-126 136.07,-126 133.07,-122 23.93,-122 23.93,-86 160.07,-86 160.07,-122"/>
<text text-anchor="middle" x="92" y="-99.8" font-family="Times,serif" font-size="14.00">FilmsRoutingModule</text>
</g>
<!-- FilmsRoutingModule&#45;&gt;FilmsModule -->
<g id="edge3" class="edge">
<title>FilmsRoutingModule&#45;&gt;FilmsModule</title>
<path fill="none" stroke="black" d="M92,-122.11C92,-141.34 92,-169 92,-169 92,-169 259.06,-169 259.06,-169"/>
<polygon fill="black" stroke="black" points="259.06,-172.5 269.06,-169 259.06,-165.5 259.06,-172.5"/>
</g>
<!-- DataService -->
<g id="node5" class="node">
<title>DataService</title>
<ellipse fill="#fdb462" stroke="black" cx="242" cy="-104" rx="58.44" ry="18"/>
<text text-anchor="middle" x="242" y="-99.8" font-family="Times,serif" font-size="14.00">DataService</text>
</g>
<!-- DataService&#45;&gt;FilmsModule -->
<g id="edge4" class="edge">
<title>DataService&#45;&gt;FilmsModule</title>
<path fill="none" stroke="black" d="M284.75,-116.23C284.75,-116.23 284.75,-140.68 284.75,-140.68"/>
<polygon fill="black" stroke="black" points="281.25,-140.68 284.75,-150.68 288.25,-140.68 281.25,-140.68"/>
</g>
</g>
</svg>
