<?xml version="1.0" encoding="UTF-8" standalone="no"?>
<!DOCTYPE svg PUBLIC "-//W3C//DTD SVG 1.1//EN"
 "http://www.w3.org/Graphics/SVG/1.1/DTD/svg11.dtd">
<!-- Generated by graphviz version 2.44.1 (20200629.0846)
 -->
<!-- Title: dependencies Pages: 1 -->
<svg width="1266pt" height="284pt"
 viewBox="0.00 0.00 1266.00 284.00" xmlns="http://www.w3.org/2000/svg" xmlns:xlink="http://www.w3.org/1999/xlink">
<g id="graph0" class="graph" transform="scale(1 1) rotate(0) translate(4 280)">
<title>dependencies</title>
<polygon fill="white" stroke="transparent" points="-4,4 -4,-280 1262,-280 1262,4 -4,4"/>
<text text-anchor="start" x="608.01" y="-42.4" font-family="sans-serif" font-weight="bold" font-size="14.00">Legend</text>
<polygon fill="#ffffb3" stroke="transparent" points="395,-10 395,-30 415,-30 415,-10 395,-10"/>
<text text-anchor="start" x="418.63" y="-15.4" font-family="sans-serif" font-size="14.00"> &#160;Declarations</text>
<polygon fill="#8dd3c7" stroke="transparent" points="508,-10 508,-30 528,-30 528,-10 508,-10"/>
<text text-anchor="start" x="531.73" y="-15.4" font-family="sans-serif" font-size="14.00"> &#160;Module</text>
<polygon fill="#80b1d3" stroke="transparent" points="594,-10 594,-30 614,-30 614,-10 594,-10"/>
<text text-anchor="start" x="617.78" y="-15.4" font-family="sans-serif" font-size="14.00"> &#160;Bootstrap</text>
<polygon fill="#fdb462" stroke="transparent" points="691,-10 691,-30 711,-30 711,-10 691,-10"/>
<text text-anchor="start" x="714.67" y="-15.4" font-family="sans-serif" font-size="14.00"> &#160;Providers</text>
<polygon fill="#fb8072" stroke="transparent" points="787,-10 787,-30 807,-30 807,-10 787,-10"/>
<text text-anchor="start" x="810.73" y="-15.4" font-family="sans-serif" font-size="14.00"> &#160;Exports</text>
<g id="clust1" class="cluster">
<title>cluster_AppModule</title>
<polygon fill="none" stroke="black" stroke-dasharray="1,5" points="8,-70 8,-268 1250,-268 1250,-70 8,-70"/>
</g>
<g id="clust11" class="cluster">
<title>cluster_AppModule_providers</title>
<polygon fill="none" stroke="black" points="1110,-78 1110,-130 1242,-130 1242,-78 1110,-78"/>
</g>
<g id="clust10" class="cluster">
<title>cluster_AppModule_bootstrap</title>
<polygon fill="none" stroke="black" points="574,-208 574,-260 698,-260 698,-208 574,-208"/>
</g>
<g id="clust2" class="cluster">
<title>cluster_AppModule_declarations</title>
<polygon fill="none" stroke="black" points="393,-78 393,-130 1102,-130 1102,-78 393,-78"/>
</g>
<g id="clust8" class="cluster">
<title>cluster_AppModule_imports</title>
<polygon fill="none" stroke="black" points="16,-78 16,-130 385,-130 385,-78 16,-78"/>
</g>
<!-- AppComponent -->
<g id="node1" class="node">
<title>AppComponent</title>
<polygon fill="#ffffb3" stroke="black" points="1093.94,-122 988.06,-122 988.06,-86 1093.94,-86 1093.94,-122"/>
<text text-anchor="middle" x="1041" y="-99.8" font-family="Times,serif" font-size="14.00">AppComponent</text>
</g>
<!-- AppModule -->
<g id="node6" class="node">
<title>AppModule</title>
<polygon fill="#8dd3c7" stroke="black" points="677.66,-187 674.66,-191 653.66,-191 650.66,-187 594.34,-187 594.34,-151 677.66,-151 677.66,-187"/>
<text text-anchor="middle" x="636" y="-164.8" font-family="Times,serif" font-size="14.00">AppModule</text>
</g>
<!-- AppComponent&#45;&gt;AppModule -->
<g id="edge1" class="edge">
<title>AppComponent&#45;&gt;AppModule</title>
<path fill="none" stroke="black" d="M1041,-122.13C1041,-142.57 1041,-173 1041,-173 1041,-173 687.82,-173 687.82,-173"/>
<polygon fill="black" stroke="black" points="687.82,-169.5 677.82,-173 687.82,-176.5 687.82,-169.5"/>
</g>
<!-- FooterComponent -->
<g id="node2" class="node">
<title>FooterComponent</title>
<polygon fill="#ffffb3" stroke="black" points="969.88,-122 852.12,-122 852.12,-86 969.88,-86 969.88,-122"/>
<text text-anchor="middle" x="911" y="-99.8" font-family="Times,serif" font-size="14.00">FooterComponent</text>
</g>
<!-- FooterComponent&#45;&gt;AppModule -->
<g id="edge2" class="edge">
<title>FooterComponent&#45;&gt;AppModule</title>
<path fill="none" stroke="black" d="M911,-122.27C911,-140.56 911,-166 911,-166 911,-166 687.77,-166 687.77,-166"/>
<polygon fill="black" stroke="black" points="687.77,-162.5 677.77,-166 687.77,-169.5 687.77,-162.5"/>
</g>
<!-- HeaderComponent -->
<g id="node3" class="node">
<title>HeaderComponent</title>
<polygon fill="#ffffb3" stroke="black" points="833.74,-122 712.26,-122 712.26,-86 833.74,-86 833.74,-122"/>
<text text-anchor="middle" x="773" y="-99.8" font-family="Times,serif" font-size="14.00">HeaderComponent</text>
</g>
<!-- HeaderComponent&#45;&gt;AppModule -->
<g id="edge3" class="edge">
<title>HeaderComponent&#45;&gt;AppModule</title>
<path fill="none" stroke="black" d="M773,-122.01C773,-138.05 773,-159 773,-159 773,-159 687.85,-159 687.85,-159"/>
<polygon fill="black" stroke="black" points="687.85,-155.5 677.85,-159 687.85,-162.5 687.85,-155.5"/>
</g>
<!-- HomeComponent -->
<g id="node4" class="node">
<title>HomeComponent</title>
<polygon fill="#ffffb3" stroke="black" points="693.55,-122 578.45,-122 578.45,-86 693.55,-86 693.55,-122"/>
<text text-anchor="middle" x="636" y="-99.8" font-family="Times,serif" font-size="14.00">HomeComponent</text>
</g>
<!-- HomeComponent&#45;&gt;AppModule -->
<g id="edge4" class="edge">
<title>HomeComponent&#45;&gt;AppModule</title>
<path fill="none" stroke="black" d="M636,-122.11C636,-122.11 636,-140.99 636,-140.99"/>
<polygon fill="black" stroke="black" points="632.5,-140.99 636,-150.99 639.5,-140.99 632.5,-140.99"/>
</g>
<!-- PagenotfoundComponent -->
<g id="node5" class="node">
<title>PagenotfoundComponent</title>
<polygon fill="#ffffb3" stroke="black" points="560.6,-122 401.4,-122 401.4,-86 560.6,-86 560.6,-122"/>
<text text-anchor="middle" x="481" y="-99.8" font-family="Times,serif" font-size="14.00">PagenotfoundComponent</text>
</g>
<!-- PagenotfoundComponent&#45;&gt;AppModule -->
<g id="edge5" class="edge">
<title>PagenotfoundComponent&#45;&gt;AppModule</title>
<path fill="none" stroke="black" d="M481,-122.01C481,-138.05 481,-159 481,-159 481,-159 584.05,-159 584.05,-159"/>
<polygon fill="black" stroke="black" points="584.05,-162.5 594.05,-159 584.05,-155.5 584.05,-162.5"/>
</g>
<!-- AppComponent  -->
<g id="node10" class="node">
<title>AppComponent </title>
<polygon fill="#80b1d3" stroke="black" points="690.44,-252 581.56,-252 581.56,-216 690.44,-216 690.44,-252"/>
<text text-anchor="middle" x="636" y="-229.8" font-family="Times,serif" font-size="14.00">AppComponent </text>
</g>
<!-- AppModule&#45;&gt;AppComponent  -->
<g id="edge9" class="edge">
<title>AppModule&#45;&gt;AppComponent </title>
<path fill="none" stroke="black" stroke-dasharray="1,5" d="M636,-187.11C636,-187.11 636,-205.99 636,-205.99"/>
<polygon fill="black" stroke="black" points="632.5,-205.99 636,-215.99 639.5,-205.99 632.5,-205.99"/>
</g>
<!-- ActorsModule -->
<g id="node7" class="node">
<title>ActorsModule</title>
<polygon fill="#8dd3c7" stroke="black" points="377.37,-122 374.37,-126 353.37,-126 350.37,-122 280.63,-122 280.63,-86 377.37,-86 377.37,-122"/>
<text text-anchor="middle" x="329" y="-99.8" font-family="Times,serif" font-size="14.00">ActorsModule</text>
</g>
<!-- ActorsModule&#45;&gt;AppModule -->
<g id="edge6" class="edge">
<title>ActorsModule&#45;&gt;AppModule</title>
<path fill="none" stroke="black" d="M329,-122.27C329,-140.56 329,-166 329,-166 329,-166 584.28,-166 584.28,-166"/>
<polygon fill="black" stroke="black" points="584.28,-169.5 594.28,-166 584.28,-162.5 584.28,-169.5"/>
</g>
<!-- AppRoutingModule -->
<g id="node8" class="node">
<title>AppRoutingModule</title>
<polygon fill="#8dd3c7" stroke="black" points="262.27,-122 259.27,-126 238.27,-126 235.27,-122 133.73,-122 133.73,-86 262.27,-86 262.27,-122"/>
<text text-anchor="middle" x="198" y="-99.8" font-family="Times,serif" font-size="14.00">AppRoutingModule</text>
</g>
<!-- AppRoutingModule&#45;&gt;AppModule -->
<g id="edge7" class="edge">
<title>AppRoutingModule&#45;&gt;AppModule</title>
<path fill="none" stroke="black" d="M198,-122.13C198,-142.57 198,-173 198,-173 198,-173 584,-173 584,-173"/>
<polygon fill="black" stroke="black" points="584,-176.5 594,-173 584,-169.5 584,-176.5"/>
</g>
<!-- FilmsModule -->
<g id="node9" class="node">
<title>FilmsModule</title>
<polygon fill="#8dd3c7" stroke="black" points="115.95,-122 112.95,-126 91.95,-126 88.95,-122 24.05,-122 24.05,-86 115.95,-86 115.95,-122"/>
<text text-anchor="middle" x="70" y="-99.8" font-family="Times,serif" font-size="14.00">FilmsModule</text>
</g>
<!-- FilmsModule&#45;&gt;AppModule -->
<g id="edge8" class="edge">
<title>FilmsModule&#45;&gt;AppModule</title>
<path fill="none" stroke="black" d="M70,-122.01C70,-144.49 70,-180 70,-180 70,-180 583.92,-180 583.92,-180"/>
<polygon fill="black" stroke="black" points="583.92,-183.5 593.92,-180 583.92,-176.5 583.92,-183.5"/>
</g>
<!-- DataService -->
<g id="node11" class="node">
<title>DataService</title>
<ellipse fill="#fdb462" stroke="black" cx="1176" cy="-104" rx="58.44" ry="18"/>
<text text-anchor="middle" x="1176" y="-99.8" font-family="Times,serif" font-size="14.00">DataService</text>
</g>
<!-- DataService&#45;&gt;AppModule -->
<g id="edge10" class="edge">
<title>DataService&#45;&gt;AppModule</title>
<path fill="none" stroke="black" d="M1176,-122.01C1176,-144.49 1176,-180 1176,-180 1176,-180 687.92,-180 687.92,-180"/>
<polygon fill="black" stroke="black" points="687.92,-176.5 677.92,-180 687.92,-183.5 687.92,-176.5"/>
</g>
</g>
</svg>
