<?xml version="1.0" encoding="UTF-8" standalone="no"?>
<!DOCTYPE svg PUBLIC "-//W3C//DTD SVG 1.1//EN"
 "http://www.w3.org/Graphics/SVG/1.1/DTD/svg11.dtd">
<!-- Generated by graphviz version 2.46.0 (20210119.1425)
 -->
<!-- Title: dependencies Pages: 1 -->
<svg width="1403pt" height="284pt"
 viewBox="0.00 0.00 1403.00 284.00" xmlns="http://www.w3.org/2000/svg" xmlns:xlink="http://www.w3.org/1999/xlink">
<g id="graph0" class="graph" transform="scale(1 1) rotate(0) translate(4 280)">
<title>dependencies</title>
<polygon fill="white" stroke="transparent" points="-4,4 -4,-280 1399,-280 1399,4 -4,4"/>
<text text-anchor="start" x="676.51" y="-42.4" font-family="sans-serif" font-weight="bold" font-size="14.00">Legend</text>
<polygon fill="#ffffb3" stroke="transparent" points="463.5,-10 463.5,-30 483.5,-30 483.5,-10 463.5,-10"/>
<text text-anchor="start" x="487.13" y="-15.4" font-family="sans-serif" font-size="14.00"> &#160;Declarations</text>
<polygon fill="#8dd3c7" stroke="transparent" points="576.5,-10 576.5,-30 596.5,-30 596.5,-10 576.5,-10"/>
<text text-anchor="start" x="600.23" y="-15.4" font-family="sans-serif" font-size="14.00"> &#160;Module</text>
<polygon fill="#80b1d3" stroke="transparent" points="662.5,-10 662.5,-30 682.5,-30 682.5,-10 662.5,-10"/>
<text text-anchor="start" x="686.28" y="-15.4" font-family="sans-serif" font-size="14.00"> &#160;Bootstrap</text>
<polygon fill="#fdb462" stroke="transparent" points="759.5,-10 759.5,-30 779.5,-30 779.5,-10 759.5,-10"/>
<text text-anchor="start" x="783.17" y="-15.4" font-family="sans-serif" font-size="14.00"> &#160;Providers</text>
<polygon fill="#fb8072" stroke="transparent" points="855.5,-10 855.5,-30 875.5,-30 875.5,-10 855.5,-10"/>
<text text-anchor="start" x="879.23" y="-15.4" font-family="sans-serif" font-size="14.00"> &#160;Exports</text>
<g id="clust1" class="cluster">
<title>cluster_AppModule</title>
<polygon fill="none" stroke="black" stroke-dasharray="1,5" points="8,-70 8,-268 1387,-268 1387,-70 8,-70"/>
</g>
<g id="clust9" class="cluster">
<title>cluster_AppModule_imports</title>
<polygon fill="none" stroke="black" points="1010,-78 1010,-130 1379,-130 1379,-78 1010,-78"/>
</g>
<g id="clust12" class="cluster">
<title>cluster_AppModule_providers</title>
<polygon fill="none" stroke="black" points="870,-78 870,-130 1002,-130 1002,-78 870,-78"/>
</g>
<g id="clust11" class="cluster">
<title>cluster_AppModule_bootstrap</title>
<polygon fill="none" stroke="black" points="674,-208 674,-260 798,-260 798,-208 674,-208"/>
</g>
<g id="clust2" class="cluster">
<title>cluster_AppModule_declarations</title>
<polygon fill="none" stroke="black" points="16,-78 16,-130 862,-130 862,-78 16,-78"/>
</g>
<!-- AppComponent -->
<g id="node1" class="node">
<title>AppComponent</title>
<polygon fill="#ffffb3" stroke="black" points="853.94,-122 748.06,-122 748.06,-86 853.94,-86 853.94,-122"/>
<text text-anchor="middle" x="801" y="-99.8" font-family="Times,serif" font-size="14.00">AppComponent</text>
</g>
<!-- AppModule -->
<g id="node7" class="node">
<title>AppModule</title>
<polygon fill="#8dd3c7" stroke="black" points="777.66,-187 774.66,-191 753.66,-191 750.66,-187 694.34,-187 694.34,-151 777.66,-151 777.66,-187"/>
<text text-anchor="middle" x="736" y="-164.8" font-family="Times,serif" font-size="14.00">AppModule</text>
</g>
<!-- AppComponent&#45;&gt;AppModule -->
<g id="edge1" class="edge">
<title>AppComponent&#45;&gt;AppModule</title>
<path fill="none" stroke="black" d="M763.05,-122.11C763.05,-122.11 763.05,-140.99 763.05,-140.99"/>
<polygon fill="black" stroke="black" points="759.55,-140.99 763.05,-150.99 766.55,-140.99 759.55,-140.99"/>
</g>
<!-- FooterComponent -->
<g id="node2" class="node">
<title>FooterComponent</title>
<polygon fill="#ffffb3" stroke="black" points="729.88,-122 612.12,-122 612.12,-86 729.88,-86 729.88,-122"/>
<text text-anchor="middle" x="671" y="-99.8" font-family="Times,serif" font-size="14.00">FooterComponent</text>
</g>
<!-- FooterComponent&#45;&gt;AppModule -->
<g id="edge2" class="edge">
<title>FooterComponent&#45;&gt;AppModule</title>
<path fill="none" stroke="black" d="M712.06,-122.11C712.06,-122.11 712.06,-140.99 712.06,-140.99"/>
<polygon fill="black" stroke="black" points="708.56,-140.99 712.06,-150.99 715.56,-140.99 708.56,-140.99"/>
</g>
<!-- HeaderComponent -->
<g id="node3" class="node">
<title>HeaderComponent</title>
<polygon fill="#ffffb3" stroke="black" points="593.74,-122 472.26,-122 472.26,-86 593.74,-86 593.74,-122"/>
<text text-anchor="middle" x="533" y="-99.8" font-family="Times,serif" font-size="14.00">HeaderComponent</text>
</g>
<!-- HeaderComponent&#45;&gt;AppModule -->
<g id="edge3" class="edge">
<title>HeaderComponent&#45;&gt;AppModule</title>
<path fill="none" stroke="black" d="M533,-122.01C533,-138.05 533,-159 533,-159 533,-159 683.94,-159 683.94,-159"/>
<polygon fill="black" stroke="black" points="683.94,-162.5 693.94,-159 683.94,-155.5 683.94,-162.5"/>
</g>
<!-- HomeComponent -->
<g id="node4" class="node">
<title>HomeComponent</title>
<polygon fill="#ffffb3" stroke="black" points="453.55,-122 338.45,-122 338.45,-86 453.55,-86 453.55,-122"/>
<text text-anchor="middle" x="396" y="-99.8" font-family="Times,serif" font-size="14.00">HomeComponent</text>
</g>
<!-- HomeComponent&#45;&gt;AppModule -->
<g id="edge4" class="edge">
<title>HomeComponent&#45;&gt;AppModule</title>
<path fill="none" stroke="black" d="M396,-122.27C396,-140.56 396,-166 396,-166 396,-166 684.31,-166 684.31,-166"/>
<polygon fill="black" stroke="black" points="684.31,-169.5 694.31,-166 684.31,-162.5 684.31,-169.5"/>
</g>
<!-- PagenotfoundComponent -->
<g id="node5" class="node">
<title>PagenotfoundComponent</title>
<polygon fill="#ffffb3" stroke="black" points="320.6,-122 161.4,-122 161.4,-86 320.6,-86 320.6,-122"/>
<text text-anchor="middle" x="241" y="-99.8" font-family="Times,serif" font-size="14.00">PagenotfoundComponent</text>
</g>
<!-- PagenotfoundComponent&#45;&gt;AppModule -->
<g id="edge5" class="edge">
<title>PagenotfoundComponent&#45;&gt;AppModule</title>
<path fill="none" stroke="black" d="M241,-122.13C241,-142.57 241,-173 241,-173 241,-173 684.22,-173 684.22,-173"/>
<polygon fill="black" stroke="black" points="684.22,-176.5 694.22,-173 684.22,-169.5 684.22,-176.5"/>
</g>
<!-- SearchComponent -->
<g id="node6" class="node">
<title>SearchComponent</title>
<polygon fill="#ffffb3" stroke="black" points="143.92,-122 24.08,-122 24.08,-86 143.92,-86 143.92,-122"/>
<text text-anchor="middle" x="84" y="-99.8" font-family="Times,serif" font-size="14.00">SearchComponent</text>
</g>
<!-- SearchComponent&#45;&gt;AppModule -->
<g id="edge6" class="edge">
<title>SearchComponent&#45;&gt;AppModule</title>
<path fill="none" stroke="black" d="M84,-122.01C84,-144.49 84,-180 84,-180 84,-180 684.22,-180 684.22,-180"/>
<polygon fill="black" stroke="black" points="684.22,-183.5 694.22,-180 684.22,-176.5 684.22,-183.5"/>
</g>
<!-- AppComponent  -->
<g id="node11" class="node">
<title>AppComponent </title>
<polygon fill="#80b1d3" stroke="black" points="790.44,-252 681.56,-252 681.56,-216 790.44,-216 790.44,-252"/>
<text text-anchor="middle" x="736" y="-229.8" font-family="Times,serif" font-size="14.00">AppComponent </text>
</g>
<!-- AppModule&#45;&gt;AppComponent  -->
<g id="edge10" class="edge">
<title>AppModule&#45;&gt;AppComponent </title>
<path fill="none" stroke="black" stroke-dasharray="1,5" d="M736,-187.11C736,-187.11 736,-205.99 736,-205.99"/>
<polygon fill="black" stroke="black" points="732.5,-205.99 736,-215.99 739.5,-205.99 732.5,-205.99"/>
</g>
<!-- ActorsModule -->
<g id="node8" class="node">
<title>ActorsModule</title>
<polygon fill="#8dd3c7" stroke="black" points="1371.37,-122 1368.37,-126 1347.37,-126 1344.37,-122 1274.63,-122 1274.63,-86 1371.37,-86 1371.37,-122"/>
<text text-anchor="middle" x="1323" y="-99.8" font-family="Times,serif" font-size="14.00">ActorsModule</text>
</g>
<!-- ActorsModule&#45;&gt;AppModule -->
<g id="edge7" class="edge">
<title>ActorsModule&#45;&gt;AppModule</title>
<path fill="none" stroke="black" d="M1323,-122.01C1323,-144.49 1323,-180 1323,-180 1323,-180 787.75,-180 787.75,-180"/>
<polygon fill="black" stroke="black" points="787.75,-176.5 777.75,-180 787.74,-183.5 787.75,-176.5"/>
</g>
<!-- AppRoutingModule -->
<g id="node9" class="node">
<title>AppRoutingModule</title>
<polygon fill="#8dd3c7" stroke="black" points="1256.27,-122 1253.27,-126 1232.27,-126 1229.27,-122 1127.73,-122 1127.73,-86 1256.27,-86 1256.27,-122"/>
<text text-anchor="middle" x="1192" y="-99.8" font-family="Times,serif" font-size="14.00">AppRoutingModule</text>
</g>
<!-- AppRoutingModule&#45;&gt;AppModule -->
<g id="edge8" class="edge">
<title>AppRoutingModule&#45;&gt;AppModule</title>
<path fill="none" stroke="black" d="M1192,-122.13C1192,-142.57 1192,-173 1192,-173 1192,-173 787.68,-173 787.68,-173"/>
<polygon fill="black" stroke="black" points="787.68,-169.5 777.68,-173 787.68,-176.5 787.68,-169.5"/>
</g>
<!-- FilmsModule -->
<g id="node10" class="node">
<title>FilmsModule</title>
<polygon fill="#8dd3c7" stroke="black" points="1109.95,-122 1106.95,-126 1085.95,-126 1082.95,-122 1018.05,-122 1018.05,-86 1109.95,-86 1109.95,-122"/>
<text text-anchor="middle" x="1064" y="-99.8" font-family="Times,serif" font-size="14.00">FilmsModule</text>
</g>
<!-- FilmsModule&#45;&gt;AppModule -->
<g id="edge9" class="edge">
<title>FilmsModule&#45;&gt;AppModule</title>
<path fill="none" stroke="black" d="M1064,-122.27C1064,-140.56 1064,-166 1064,-166 1064,-166 787.87,-166 787.87,-166"/>
<polygon fill="black" stroke="black" points="787.87,-162.5 777.87,-166 787.87,-169.5 787.87,-162.5"/>
</g>
<!-- DataService -->
<g id="node12" class="node">
<title>DataService</title>
<ellipse fill="#fdb462" stroke="black" cx="936" cy="-104" rx="58.44" ry="18"/>
<text text-anchor="middle" x="936" y="-99.8" font-family="Times,serif" font-size="14.00">DataService</text>
</g>
<!-- DataService&#45;&gt;AppModule -->
<g id="edge11" class="edge">
<title>DataService&#45;&gt;AppModule</title>
<path fill="none" stroke="black" d="M936,-122.01C936,-138.05 936,-159 936,-159 936,-159 787.93,-159 787.93,-159"/>
<polygon fill="black" stroke="black" points="787.93,-155.5 777.93,-159 787.93,-162.5 787.93,-155.5"/>
</g>
</g>
</svg>
