<?xml version="1.0" encoding="UTF-8" standalone="no"?>
<!DOCTYPE svg PUBLIC "-//W3C//DTD SVG 1.1//EN"
 "http://www.w3.org/Graphics/SVG/1.1/DTD/svg11.dtd">
<!-- Generated by graphviz version 2.44.1 (20200629.0846)
 -->
<!-- Title: dependencies Pages: 1 -->
<svg width="1959pt" height="363pt"
 viewBox="0.00 0.00 1959.00 363.00" xmlns="http://www.w3.org/2000/svg" xmlns:xlink="http://www.w3.org/1999/xlink">
<g id="graph0" class="graph" transform="scale(1 1) rotate(0) translate(4 359)">
<title>dependencies</title>
<polygon fill="white" stroke="transparent" points="-4,4 -4,-359 1955,-359 1955,4 -4,4"/>
<text text-anchor="start" x="954.51" y="-42.4" font-family="sans-serif" font-weight="bold" font-size="14.00">Legend</text>
<polygon fill="#ffffb3" stroke="transparent" points="741.5,-10 741.5,-30 761.5,-30 761.5,-10 741.5,-10"/>
<text text-anchor="start" x="765.13" y="-15.4" font-family="sans-serif" font-size="14.00"> &#160;Declarations</text>
<polygon fill="#8dd3c7" stroke="transparent" points="854.5,-10 854.5,-30 874.5,-30 874.5,-10 854.5,-10"/>
<text text-anchor="start" x="878.23" y="-15.4" font-family="sans-serif" font-size="14.00"> &#160;Module</text>
<polygon fill="#80b1d3" stroke="transparent" points="940.5,-10 940.5,-30 960.5,-30 960.5,-10 940.5,-10"/>
<text text-anchor="start" x="964.28" y="-15.4" font-family="sans-serif" font-size="14.00"> &#160;Bootstrap</text>
<polygon fill="#fdb462" stroke="transparent" points="1037.5,-10 1037.5,-30 1057.5,-30 1057.5,-10 1037.5,-10"/>
<text text-anchor="start" x="1061.17" y="-15.4" font-family="sans-serif" font-size="14.00"> &#160;Providers</text>
<polygon fill="#fb8072" stroke="transparent" points="1133.5,-10 1133.5,-30 1153.5,-30 1153.5,-10 1133.5,-10"/>
<text text-anchor="start" x="1157.23" y="-15.4" font-family="sans-serif" font-size="14.00"> &#160;Exports</text>
<g id="clust1" class="cluster">
<title>cluster_ActorsModule</title>
<polygon fill="none" stroke="black" stroke-dasharray="1,5" points="8,-70 8,-279 793,-279 793,-70 8,-70"/>
</g>
<g id="clust2" class="cluster">
<title>cluster_ActorsModule_declarations</title>
<polygon fill="none" stroke="black" points="182,-78 182,-130 645,-130 645,-78 182,-78"/>
</g>
<g id="clust6" class="cluster">
<title>cluster_ActorsModule_imports</title>
<polygon fill="none" stroke="black" points="16,-78 16,-130 174,-130 174,-78 16,-78"/>
</g>
<g id="clust7" class="cluster">
<title>cluster_ActorsModule_exports</title>
<polygon fill="none" stroke="black" points="409,-219 409,-271 547,-271 547,-219 409,-219"/>
</g>
<g id="clust9" class="cluster">
<title>cluster_ActorsModule_providers</title>
<polygon fill="none" stroke="black" points="653,-78 653,-130 785,-130 785,-78 653,-78"/>
</g>
<g id="clust16" class="cluster">
<title>cluster_AppModule</title>
<polygon fill="none" stroke="black" stroke-dasharray="1,5" points="812,-146 812,-347 1799,-347 1799,-146 812,-146"/>
</g>
<g id="clust17" class="cluster">
<title>cluster_AppModule_declarations</title>
<polygon fill="none" stroke="black" points="1082,-154 1082,-206 1791,-206 1791,-154 1082,-154"/>
</g>
<g id="clust23" class="cluster">
<title>cluster_AppModule_imports</title>
<polygon fill="none" stroke="black" points="820,-154 820,-206 1074,-206 1074,-154 820,-154"/>
</g>
<g id="clust25" class="cluster">
<title>cluster_AppModule_bootstrap</title>
<polygon fill="none" stroke="black" points="1465,-287 1465,-339 1589,-339 1589,-287 1465,-287"/>
</g>
<g id="clust33" class="cluster">
<title>cluster_AppServerModule</title>
<polygon fill="none" stroke="black" stroke-dasharray="1,5" points="1807,-219 1807,-271 1943,-271 1943,-219 1807,-219"/>
</g>
<g id="clust39" class="cluster">
<title>cluster_FilmsModule</title>
<polygon fill="none" stroke="black" stroke-dasharray="1,5" points="801,-70 801,-138 1289,-138 1289,-70 801,-70"/>
</g>
<g id="clust40" class="cluster">
<title>cluster_FilmsModule_declarations</title>
<polygon fill="none" stroke="black" points="969,-78 969,-130 1281,-130 1281,-78 969,-78"/>
</g>
<g id="clust43" class="cluster">
<title>cluster_FilmsModule_imports</title>
<polygon fill="none" stroke="black" points="809,-78 809,-130 961,-130 961,-78 809,-78"/>
</g>
<!-- ActorDetailsComponent -->
<g id="node1" class="node">
<title>ActorDetailsComponent</title>
<polygon fill="#ffffb3" stroke="black" points="637.36,-122 484.64,-122 484.64,-86 637.36,-86 637.36,-122"/>
<text text-anchor="middle" x="561" y="-99.8" font-family="Times,serif" font-size="14.00">ActorDetailsComponent</text>
</g>
<!-- ActorsModule -->
<g id="node4" class="node">
<title>ActorsModule</title>
<polygon fill="#8dd3c7" stroke="black" points="526.37,-198 523.37,-202 502.37,-202 499.37,-198 429.63,-198 429.63,-162 526.37,-162 526.37,-198"/>
<text text-anchor="middle" x="478" y="-175.8" font-family="Times,serif" font-size="14.00">ActorsModule</text>
</g>
<!-- ActorDetailsComponent&#45;&gt;ActorsModule -->
<g id="edge1" class="edge">
<title>ActorDetailsComponent&#45;&gt;ActorsModule</title>
<path fill="none" stroke="black" d="M505.5,-122.01C505.5,-122.01 505.5,-151.85 505.5,-151.85"/>
<polygon fill="black" stroke="black" points="502,-151.85 505.5,-161.85 509,-151.85 502,-151.85"/>
</g>
<!-- ActorsListComponent -->
<g id="node2" class="node">
<title>ActorsListComponent</title>
<polygon fill="#ffffb3" stroke="black" points="466.43,-122 325.57,-122 325.57,-86 466.43,-86 466.43,-122"/>
<text text-anchor="middle" x="396" y="-99.8" font-family="Times,serif" font-size="14.00">ActorsListComponent</text>
</g>
<!-- ActorsListComponent&#45;&gt;ActorsModule -->
<g id="edge2" class="edge">
<title>ActorsListComponent&#45;&gt;ActorsModule</title>
<path fill="none" stroke="black" d="M447.89,-122.01C447.89,-122.01 447.89,-151.85 447.89,-151.85"/>
<polygon fill="black" stroke="black" points="444.39,-151.85 447.89,-161.85 451.39,-151.85 444.39,-151.85"/>
</g>
<!-- ModalComponent -->
<g id="node3" class="node">
<title>ModalComponent</title>
<polygon fill="#ffffb3" stroke="black" points="307.88,-122 190.12,-122 190.12,-86 307.88,-86 307.88,-122"/>
<text text-anchor="middle" x="249" y="-99.8" font-family="Times,serif" font-size="14.00">ModalComponent</text>
</g>
<!-- ModalComponent&#45;&gt;ActorsModule -->
<g id="edge3" class="edge">
<title>ModalComponent&#45;&gt;ActorsModule</title>
<path fill="none" stroke="black" d="M249,-122.03C249,-142.77 249,-174 249,-174 249,-174 419.43,-174 419.43,-174"/>
<polygon fill="black" stroke="black" points="419.44,-177.5 429.43,-174 419.43,-170.5 419.44,-177.5"/>
</g>
<!-- ModalComponent  -->
<g id="node6" class="node">
<title>ModalComponent </title>
<polygon fill="#fb8072" stroke="black" points="538.88,-263 417.12,-263 417.12,-227 538.88,-227 538.88,-263"/>
<text text-anchor="middle" x="478" y="-240.8" font-family="Times,serif" font-size="14.00">ModalComponent </text>
</g>
<!-- ActorsModule&#45;&gt;ModalComponent  -->
<g id="edge5" class="edge">
<title>ActorsModule&#45;&gt;ModalComponent </title>
<path fill="none" stroke="black" stroke-dasharray="5,2" d="M494.14,-198.11C494.14,-198.11 494.14,-216.99 494.14,-216.99"/>
<polygon fill="black" stroke="black" points="490.64,-216.99 494.14,-226.99 497.64,-216.99 490.64,-216.99"/>
</g>
<!-- ActorsModule&#45;&gt;ModalComponent  -->
<g id="edge6" class="edge">
<title>ActorsModule&#45;&gt;ModalComponent </title>
<path fill="none" stroke="black" stroke-dasharray="1,5" d="M461.86,-198.11C461.86,-198.11 461.86,-216.99 461.86,-216.99"/>
<polygon fill="black" stroke="black" points="458.36,-216.99 461.86,-226.99 465.36,-216.99 458.36,-216.99"/>
</g>
<!-- AppModule -->
<g id="node13" class="node">
<title>AppModule</title>
<polygon fill="#8dd3c7" stroke="black" points="1366.66,-263 1363.66,-267 1342.66,-267 1339.66,-263 1283.34,-263 1283.34,-227 1366.66,-227 1366.66,-263"/>
<text text-anchor="middle" x="1325" y="-240.8" font-family="Times,serif" font-size="14.00">AppModule</text>
</g>
<!-- ActorsModule&#45;&gt;AppModule -->
<g id="edge13" class="edge">
<title>ActorsModule&#45;&gt;AppModule</title>
<path fill="none" stroke="black" d="M526.57,-180C577.16,-180 649.1,-180 649.1,-180 649.1,-180 649.1,-257 649.1,-257 649.1,-257 1273.23,-257 1273.23,-257"/>
<polygon fill="black" stroke="black" points="1273.23,-260.5 1283.23,-257 1273.23,-253.5 1273.23,-260.5"/>
</g>
<!-- ActorsRoutingModule -->
<g id="node5" class="node">
<title>ActorsRoutingModule</title>
<polygon fill="#8dd3c7" stroke="black" points="165.98,-122 162.98,-126 141.98,-126 138.98,-122 24.02,-122 24.02,-86 165.98,-86 165.98,-122"/>
<text text-anchor="middle" x="95" y="-99.8" font-family="Times,serif" font-size="14.00">ActorsRoutingModule</text>
</g>
<!-- ActorsRoutingModule&#45;&gt;ActorsModule -->
<g id="edge4" class="edge">
<title>ActorsRoutingModule&#45;&gt;ActorsModule</title>
<path fill="none" stroke="black" d="M95,-122.2C95,-146.36 95,-186 95,-186 95,-186 419.49,-186 419.49,-186"/>
<polygon fill="black" stroke="black" points="419.49,-189.5 429.49,-186 419.49,-182.5 419.49,-189.5"/>
</g>
<!-- DataService -->
<g id="node7" class="node">
<title>DataService</title>
<ellipse fill="#fdb462" stroke="black" cx="719" cy="-104" rx="58.44" ry="18"/>
<text text-anchor="middle" x="719" y="-99.8" font-family="Times,serif" font-size="14.00">DataService</text>
</g>
<!-- DataService&#45;&gt;ActorsModule -->
<g id="edge7" class="edge">
<title>DataService&#45;&gt;ActorsModule</title>
<path fill="none" stroke="black" d="M689.89,-119.88C689.89,-139.69 689.89,-171 689.89,-171 689.89,-171 536.61,-171 536.61,-171"/>
<polygon fill="black" stroke="black" points="536.61,-167.5 526.61,-171 536.61,-174.5 536.61,-167.5"/>
</g>
<!-- DataService&#45;&gt;AppModule -->
<g id="edge17" class="edge">
<title>DataService&#45;&gt;AppModule</title>
<path fill="none" stroke="black" d="M719,-122.03C719,-161.28 719,-251 719,-251 719,-251 1272.87,-251 1272.87,-251"/>
<polygon fill="black" stroke="black" points="1272.87,-254.5 1282.87,-251 1272.87,-247.5 1272.87,-254.5"/>
</g>
<!-- FilmsModule -->
<g id="node15" class="node">
<title>FilmsModule</title>
<polygon fill="#8dd3c7" stroke="black" points="919.95,-198 916.95,-202 895.95,-202 892.95,-198 828.05,-198 828.05,-162 919.95,-162 919.95,-198"/>
<text text-anchor="middle" x="874" y="-175.8" font-family="Times,serif" font-size="14.00">FilmsModule</text>
</g>
<!-- DataService&#45;&gt;FilmsModule -->
<g id="edge23" class="edge">
<title>DataService&#45;&gt;FilmsModule</title>
<path fill="none" stroke="black" d="M748.11,-119.59C748.11,-144.13 748.11,-189 748.11,-189 748.11,-189 818.19,-189 818.19,-189"/>
<polygon fill="black" stroke="black" points="818.19,-192.5 828.19,-189 818.19,-185.5 818.19,-192.5"/>
</g>
<!-- AppComponent -->
<g id="node8" class="node">
<title>AppComponent</title>
<polygon fill="#ffffb3" stroke="black" points="1782.94,-198 1677.06,-198 1677.06,-162 1782.94,-162 1782.94,-198"/>
<text text-anchor="middle" x="1730" y="-175.8" font-family="Times,serif" font-size="14.00">AppComponent</text>
</g>
<!-- AppComponent&#45;&gt;AppModule -->
<g id="edge8" class="edge">
<title>AppComponent&#45;&gt;AppModule</title>
<path fill="none" stroke="black" d="M1730,-198.22C1730,-216.83 1730,-243 1730,-243 1730,-243 1376.82,-243 1376.82,-243"/>
<polygon fill="black" stroke="black" points="1376.82,-239.5 1366.82,-243 1376.82,-246.5 1376.82,-239.5"/>
</g>
<!-- FooterComponent -->
<g id="node9" class="node">
<title>FooterComponent</title>
<polygon fill="#ffffb3" stroke="black" points="1658.88,-198 1541.12,-198 1541.12,-162 1658.88,-162 1658.88,-198"/>
<text text-anchor="middle" x="1600" y="-175.8" font-family="Times,serif" font-size="14.00">FooterComponent</text>
</g>
<!-- FooterComponent&#45;&gt;AppModule -->
<g id="edge9" class="edge">
<title>FooterComponent&#45;&gt;AppModule</title>
<path fill="none" stroke="black" d="M1554.53,-198.03C1554.53,-215.06 1554.53,-238 1554.53,-238 1554.53,-238 1376.83,-238 1376.83,-238"/>
<polygon fill="black" stroke="black" points="1376.83,-234.5 1366.83,-238 1376.83,-241.5 1376.83,-234.5"/>
</g>
<!-- HeaderComponent -->
<g id="node10" class="node">
<title>HeaderComponent</title>
<polygon fill="#ffffb3" stroke="black" points="1522.74,-198 1401.26,-198 1401.26,-162 1522.74,-162 1522.74,-198"/>
<text text-anchor="middle" x="1462" y="-175.8" font-family="Times,serif" font-size="14.00">HeaderComponent</text>
</g>
<!-- HeaderComponent&#45;&gt;AppModule -->
<g id="edge10" class="edge">
<title>HeaderComponent&#45;&gt;AppModule</title>
<path fill="none" stroke="black" d="M1436.83,-198.24C1436.83,-213.57 1436.83,-233 1436.83,-233 1436.83,-233 1376.96,-233 1376.96,-233"/>
<polygon fill="black" stroke="black" points="1376.96,-229.5 1366.96,-233 1376.96,-236.5 1376.96,-229.5"/>
</g>
<!-- HomeComponent -->
<g id="node11" class="node">
<title>HomeComponent</title>
<polygon fill="#ffffb3" stroke="black" points="1382.55,-198 1267.45,-198 1267.45,-162 1382.55,-162 1382.55,-198"/>
<text text-anchor="middle" x="1325" y="-175.8" font-family="Times,serif" font-size="14.00">HomeComponent</text>
</g>
<!-- HomeComponent&#45;&gt;AppModule -->
<g id="edge11" class="edge">
<title>HomeComponent&#45;&gt;AppModule</title>
<path fill="none" stroke="black" d="M1325,-198.11C1325,-198.11 1325,-216.99 1325,-216.99"/>
<polygon fill="black" stroke="black" points="1321.5,-216.99 1325,-226.99 1328.5,-216.99 1321.5,-216.99"/>
</g>
<!-- PagenotfoundComponent -->
<g id="node12" class="node">
<title>PagenotfoundComponent</title>
<polygon fill="#ffffb3" stroke="black" points="1249.6,-198 1090.4,-198 1090.4,-162 1249.6,-162 1249.6,-198"/>
<text text-anchor="middle" x="1170" y="-175.8" font-family="Times,serif" font-size="14.00">PagenotfoundComponent</text>
</g>
<!-- PagenotfoundComponent&#45;&gt;AppModule -->
<g id="edge12" class="edge">
<title>PagenotfoundComponent&#45;&gt;AppModule</title>
<path fill="none" stroke="black" d="M1170,-198.24C1170,-213.57 1170,-233 1170,-233 1170,-233 1273.05,-233 1273.05,-233"/>
<polygon fill="black" stroke="black" points="1273.05,-236.5 1283.05,-233 1273.05,-229.5 1273.05,-236.5"/>
</g>
<!-- AppComponent  -->
<g id="node16" class="node">
<title>AppComponent </title>
<polygon fill="#80b1d3" stroke="black" points="1581.44,-331 1472.56,-331 1472.56,-295 1581.44,-295 1581.44,-331"/>
<text text-anchor="middle" x="1527" y="-308.8" font-family="Times,serif" font-size="14.00">AppComponent </text>
</g>
<!-- AppModule&#45;&gt;AppComponent  -->
<g id="edge16" class="edge">
<title>AppModule&#45;&gt;AppComponent </title>
<path fill="none" stroke="black" stroke-dasharray="1,5" d="M1366.81,-258C1417.92,-258 1497.7,-258 1497.7,-258 1497.7,-258 1497.7,-284.99 1497.7,-284.99"/>
<polygon fill="black" stroke="black" points="1494.2,-284.99 1497.7,-294.99 1501.2,-284.99 1494.2,-284.99"/>
</g>
<!-- AppServerModule -->
<g id="node17" class="node">
<title>AppServerModule</title>
<polygon fill="#8dd3c7" stroke="black" points="1935.19,-263 1932.19,-267 1911.19,-267 1908.19,-263 1814.81,-263 1814.81,-227 1935.19,-227 1935.19,-263"/>
<text text-anchor="middle" x="1875" y="-240.8" font-family="Times,serif" font-size="14.00">AppServerModule</text>
</g>
<!-- AppModule&#45;&gt;AppServerModule -->
<g id="edge18" class="edge">
<title>AppModule&#45;&gt;AppServerModule</title>
<path fill="none" stroke="black" d="M1366.79,-248C1366.79,-248 1804.52,-248 1804.52,-248"/>
<polygon fill="black" stroke="black" points="1804.52,-251.5 1814.52,-248 1804.52,-244.5 1804.52,-251.5"/>
</g>
<!-- AppRoutingModule -->
<g id="node14" class="node">
<title>AppRoutingModule</title>
<polygon fill="#8dd3c7" stroke="black" points="1066.27,-198 1063.27,-202 1042.27,-202 1039.27,-198 937.73,-198 937.73,-162 1066.27,-162 1066.27,-198"/>
<text text-anchor="middle" x="1002" y="-175.8" font-family="Times,serif" font-size="14.00">AppRoutingModule</text>
</g>
<!-- AppRoutingModule&#45;&gt;AppModule -->
<g id="edge14" class="edge">
<title>AppRoutingModule&#45;&gt;AppModule</title>
<path fill="none" stroke="black" d="M1002,-198.02C1002,-215.37 1002,-239 1002,-239 1002,-239 1273.1,-239 1273.1,-239"/>
<polygon fill="black" stroke="black" points="1273.1,-242.5 1283.1,-239 1273.1,-235.5 1273.1,-242.5"/>
</g>
<!-- FilmsModule&#45;&gt;AppModule -->
<g id="edge15" class="edge">
<title>FilmsModule&#45;&gt;AppModule</title>
<path fill="none" stroke="black" d="M874,-198.11C874,-217.34 874,-245 874,-245 874,-245 1272.98,-245 1272.98,-245"/>
<polygon fill="black" stroke="black" points="1272.98,-248.5 1282.98,-245 1272.98,-241.5 1272.98,-248.5"/>
</g>
<!-- AppServerModule&#45;&gt;AppComponent  -->
<g id="edge19" class="edge">
<title>AppServerModule&#45;&gt;AppComponent </title>
<path fill="none" stroke="black" stroke-dasharray="1,5" d="M1814.71,-253C1725.31,-253 1568,-253 1568,-253 1568,-253 1568,-285 1568,-285"/>
<polygon fill="black" stroke="black" points="1564.5,-285 1568,-295 1571.5,-285 1564.5,-285"/>
</g>
<!-- FilmDetailsComponent -->
<g id="node18" class="node">
<title>FilmDetailsComponent</title>
<polygon fill="#ffffb3" stroke="black" points="1272.94,-122 1125.06,-122 1125.06,-86 1272.94,-86 1272.94,-122"/>
<text text-anchor="middle" x="1199" y="-99.8" font-family="Times,serif" font-size="14.00">FilmDetailsComponent</text>
</g>
<!-- FilmDetailsComponent&#45;&gt;FilmsModule -->
<g id="edge20" class="edge">
<title>FilmDetailsComponent&#45;&gt;FilmsModule</title>
<path fill="none" stroke="black" d="M1187.41,-122.04C1187.41,-134.56 1187.41,-149 1187.41,-149 1187.41,-149 896.86,-149 896.86,-149 896.86,-149 896.86,-151.97 896.86,-151.97"/>
<polygon fill="black" stroke="black" points="893.36,-151.97 896.86,-161.97 900.36,-151.97 893.36,-151.97"/>
</g>
<!-- FilmListComponent -->
<g id="node19" class="node">
<title>FilmListComponent</title>
<polygon fill="#ffffb3" stroke="black" points="1106.57,-122 977.43,-122 977.43,-86 1106.57,-86 1106.57,-122"/>
<text text-anchor="middle" x="1042" y="-99.8" font-family="Times,serif" font-size="14.00">FilmListComponent</text>
</g>
<!-- FilmListComponent&#45;&gt;FilmsModule -->
<g id="edge21" class="edge">
<title>FilmListComponent&#45;&gt;FilmsModule</title>
<path fill="none" stroke="black" d="M1021.8,-122.24C1021.8,-129.43 1021.8,-136 1021.8,-136 1021.8,-136 874,-136 874,-136 874,-136 874,-151.85 874,-151.85"/>
<polygon fill="black" stroke="black" points="870.5,-151.85 874,-161.85 877.5,-151.85 870.5,-151.85"/>
</g>
<!-- FilmsRoutingModule -->
<g id="node20" class="node">
<title>FilmsRoutingModule</title>
<polygon fill="#8dd3c7" stroke="black" points="953.07,-122 950.07,-126 929.07,-126 926.07,-122 816.93,-122 816.93,-86 953.07,-86 953.07,-122"/>
<text text-anchor="middle" x="885" y="-99.8" font-family="Times,serif" font-size="14.00">FilmsRoutingModule</text>
</g>
<!-- FilmsRoutingModule&#45;&gt;FilmsModule -->
<g id="edge22" class="edge">
<title>FilmsRoutingModule&#45;&gt;FilmsModule</title>
<path fill="none" stroke="black" d="M851.14,-122.01C851.14,-122.01 851.14,-151.85 851.14,-151.85"/>
<polygon fill="black" stroke="black" points="847.64,-151.85 851.14,-161.85 854.64,-151.85 847.64,-151.85"/>
</g>
</g>
</svg>
